<?xml version="1.0" encoding="UTF-8" standalone="no"?>
<!-- Created with Inkscape (http://www.inkscape.org/) -->

<svg
   xmlns:ns0="http://www.iki.fi/pav/software/textext/"
   xmlns:dc="http://purl.org/dc/elements/1.1/"
   xmlns:cc="http://creativecommons.org/ns#"
   xmlns:rdf="http://www.w3.org/1999/02/22-rdf-syntax-ns#"
   xmlns:svg="http://www.w3.org/2000/svg"
   xmlns="http://www.w3.org/2000/svg"
   xmlns:xlink="http://www.w3.org/1999/xlink"
   xmlns:sodipodi="http://sodipodi.sourceforge.net/DTD/sodipodi-0.dtd"
   xmlns:inkscape="http://www.inkscape.org/namespaces/inkscape"
   width="86"
   height="86"
   id="svg2"
   version="1.1"
   inkscape:version="0.91 r13725"
   sodipodi:docname="cover_background.svg"
   inkscape:export-filename="C:\Users\Stephan\Desktop\double-shape.png"
   inkscape:export-xdpi="90"
   inkscape:export-ydpi="90">
  <sodipodi:namedview
     id="base"
     pagecolor="#ffffff"
     bordercolor="#666666"
     borderopacity="1.0"
     inkscape:pageopacity="0.0"
     inkscape:pageshadow="2"
     inkscape:zoom="2.56"
     inkscape:cx="74.156248"
     inkscape:cy="23.562499"
     inkscape:document-units="px"
     inkscape:current-layer="layer2"
     showgrid="true"
     inkscape:window-width="1920"
     inkscape:window-height="1056"
     inkscape:window-x="0"
     inkscape:window-y="24"
     inkscape:window-maximized="1"
     inkscape:snap-bbox="true"
     inkscape:snap-global="true">
    <inkscape:grid
       type="xygrid"
       id="grid2985"
       empspacing="5"
       visible="true"
       enabled="true"
       snapvisiblegridlinesonly="true" />
  </sodipodi:namedview>
  <defs
     id="defs4">
    <linearGradient
       id="linearGradient3789-6">
      <stop
         style="stop-color:#1e9bff;stop-opacity:1;"
         offset="0"
         id="stop3791-0" />
      <stop
         style="stop-color:#00c8de;stop-opacity:1;"
         offset="1"
         id="stop3793-4" />
    </linearGradient>
  </defs>
  <metadata
     id="metadata7">
    <rdf:RDF>
      <cc:Work
         rdf:about="">
        <dc:format>image/svg+xml</dc:format>
        <dc:type
           rdf:resource="http://purl.org/dc/dcmitype/StillImage" />
        <dc:title />
      </cc:Work>
    </rdf:RDF>
  </metadata>
  <g
     inkscape:groupmode="layer"
     id="layer2"
     inkscape:label="Ebene"
     style="display:inline"
     transform="translate(0,-4)">
    <g
       style="fill:#f7f7ff;fill-opacity:1"
       transform="matrix(5.6891416,0,0,5.6891416,-1276.9036,-701.87274)"
       ns0:text="$\\sqrt{\\pi}$"
       ns0:preamble="/home/bauke/Physik/laser/papers/cppp_paper/sketches/header.sty"
       id="g4595">
      <defs
         id="defs4597">
        <g
           id="g4599">
          <symbol
             style="overflow:visible"
             overflow="visible"
             id="textext-2e94bc7a-0">
            <path
               inkscape:connector-curvature="0"
               style="stroke:none"
               d=""
               id="path4602" />
          </symbol>
          <symbol
             style="overflow:visible"
             overflow="visible"
             id="textext-2e94bc7a-1">
            <path
               inkscape:connector-curvature="0"
               style="stroke:none"
               d="m 7.3125,-0.5625 -0.578125,0 L 4.46875,7.25 2.515625,3.09375 0.59375,4.109375 0.71875,4.3125 1.78125,3.921875 4.40625,9.40625 Z m 0,0"
               id="path4605" />
          </symbol>
          <symbol
             style="overflow:visible"
             overflow="visible"
             id="textext-2e94bc7a-2">
            <path
               inkscape:connector-curvature="0"
               style="stroke:none"
               d=""
               id="path4608" />
          </symbol>
          <symbol
             style="overflow:visible"
             overflow="visible"
             id="textext-2e94bc7a-3">
            <path
               inkscape:connector-curvature="0"
               style="stroke:none"
               d="m 5.1875,-4.390625 -3.4375,0 c -0.921875,0 -1.46875,1.09375 -1.546875,1.28125 l 0.109375,0 c 0.046875,-0.078125 0.421875,-0.5625 0.9375,-0.5625 l 0.515625,0 L 1.0625,-1.5625 C 0.84375,-0.90625 0.03125,-0.875 0.03125,-0.203125 l 0,0.046875 c 0,0.171875 0.125,0.265625 0.375,0.265625 0.375,0 0.734375,-0.234375 1.21875,-1.65625 l 0.734375,-2.125 1,0 L 2.875,-1.53125 c -0.078125,0.296875 -0.109375,0.546875 -0.109375,0.75 l 0,0.078125 c 0,0.4375 0.296875,0.8125 0.78125,0.8125 0.234375,0 0.5,-0.0625 0.5,-0.40625 l 0,-0.03125 c 0,-0.59375 -0.59375,-0.515625 -0.59375,-1.0625 0,-0.078125 0,-0.171875 0.03125,-0.28125 l 0.5,-2 1.046875,0 z m 0,0"
               id="path4611" />
          </symbol>
        </g>
      </defs>
      <g
         id="g4610"
         transform="matrix(0.95935357,0,0,0.95935357,9.3721516,5.0277397)"
         ns0:preamble="/home/bauke/Programmieren/Jolla/harbour-babbage/icons/header.sty"
         ns0:text="\\color{white}$\\sqrt{\\pi}$">
        <defs
           id="defs4612">
          <g
             id="g4614">
            <symbol
               id="textext-d3a2bbe6-0"
               overflow="visible"
               style="overflow:visible">
              <path
                 id="path4617"
                 d=""
                 style="stroke:none"
                 inkscape:connector-curvature="0" />
            </symbol>
            <symbol
               id="textext-d3a2bbe6-1"
               overflow="visible"
               style="overflow:visible">
              <path
                 id="path4620"
                 d="m 7.3125,-0.5625 -0.578125,0 L 4.46875,7.25 2.515625,3.09375 0.59375,4.109375 0.71875,4.3125 1.78125,3.921875 4.40625,9.40625 Z m 0,0"
                 style="stroke:none"
                 inkscape:connector-curvature="0" />
            </symbol>
            <symbol
               id="textext-d3a2bbe6-2"
               overflow="visible"
               style="overflow:visible">
              <path
                 id="path4623"
                 d=""
                 style="stroke:none"
                 inkscape:connector-curvature="0" />
            </symbol>
            <symbol
               id="textext-d3a2bbe6-3"
               overflow="visible"
               style="overflow:visible">
              <path
                 id="path4626"
                 d="m 5.1875,-4.390625 -3.4375,0 c -0.921875,0 -1.46875,1.09375 -1.546875,1.28125 l 0.109375,0 c 0.046875,-0.078125 0.421875,-0.5625 0.9375,-0.5625 l 0.515625,0 L 1.0625,-1.5625 C 0.84375,-0.90625 0.03125,-0.875 0.03125,-0.203125 l 0,0.046875 c 0,0.171875 0.125,0.265625 0.375,0.265625 0.375,0 0.734375,-0.234375 1.21875,-1.65625 l 0.734375,-2.125 1,0 L 2.875,-1.53125 c -0.078125,0.296875 -0.109375,0.546875 -0.109375,0.75 l 0,0.078125 c 0,0.4375 0.296875,0.8125 0.78125,0.8125 0.234375,0 0.5,-0.0625 0.5,-0.40625 l 0,-0.03125 c 0,-0.59375 -0.59375,-0.515625 -0.59375,-1.0625 0,-0.078125 0,-0.171875 0.03125,-0.28125 l 0.5,-2 1.046875,0 z m 0,0"
                 style="stroke:none"
                 inkscape:connector-curvature="0" />
            </symbol>
          </g>
        </defs>
        <g
           id="textext-d3a2bbe6-4">
          <g
             id="g4629"
             style="fill:#ffffff;fill-opacity:1">
            <use
               id="use4631"
               y="127.578"
               x="225.093"
               xlink:href="#textext-d3a2bbe6-1"
               width="100%"
               height="100%" />
          </g>
          <path
             id="path4633"
             transform="matrix(1,0,0,-1,232.096,127.299)"
             d="m 0.00165625,-0.00178125 5.56640575,0"
             style="fill:none;stroke:#ffffff;stroke-width:0.55800003;stroke-linecap:butt;stroke-linejoin:miter;stroke-miterlimit:10;stroke-opacity:1"
             inkscape:connector-curvature="0" />
          <g
             id="g4635"
             style="fill:#ffffff;fill-opacity:1">
            <use
               id="use4637"
               y="134.765"
               x="232.09599"
               xlink:href="#textext-d3a2bbe6-3"
               width="100%"
               height="100%" />
          </g>
        </g>
      </g>
    </g>
  </g>
</svg>
